<?xml version="1.0" standalone="no"?>
<!DOCTYPE svg PUBLIC "-//W3C//DTD SVG 20010904//EN"
 "http://www.w3.org/TR/2001/REC-SVG-20010904/DTD/svg10.dtd">
<svg version="1.0" xmlns="http://www.w3.org/2000/svg"
 width="71.000000pt" height="71.000000pt" viewBox="0 0 71.000000 71.000000"
 preserveAspectRatio="xMidYMid meet">
<metadata>
Created by potrace 1.14, written by Peter Selinger 2001-2017
</metadata>
<g transform="translate(0.000000,71.000000) scale(0.100000,-0.100000)"
fill="#000000" stroke="none">
<path d="M335 698 c-12 -39 -13 -42 -14 -20 -1 22 -15 30 -25 14 -3 -5 -19 -7
-36 -4 -20 3 -30 0 -30 -9 0 -7 -3 -9 -6 -6 -4 4 -25 -7 -47 -23 -23 -17 -46
-30 -53 -30 -15 0 -26 -28 -17 -43 3 -7 3 -9 -2 -5 -10 10 -35 -17 -35 -37 0
-9 -9 -19 -20 -22 -23 -6 -24 -8 -9 -35 9 -16 8 -19 -2 -13 -8 6 -11 4 -6 -7
3 -9 0 -21 -6 -27 -9 -10 -5 -11 18 -6 27 6 28 5 10 -6 -25 -15 -35 -30 -29
-41 3 -4 0 -8 -6 -8 -6 0 -9 -8 -6 -17 6 -19 18 -97 19 -126 1 -9 9 -20 19
-23 10 -3 16 -9 13 -14 -5 -8 32 -24 49 -21 5 1 4 -4 -2 -12 -12 -14 -7 -47 7
-47 4 0 13 6 21 13 12 10 12 9 2 -5 -9 -11 -10 -18 -2 -23 13 -8 40 12 37 27
-1 6 6 12 15 13 10 2 17 0 17 -3 -1 -4 0 -10 1 -14 11 -34 -5 -54 -30 -35 -8
6 -5 0 8 -14 12 -14 22 -32 22 -40 0 -9 8 -5 20 11 16 20 20 22 20 7 0 -13 7
-17 28 -15 15 1 38 -4 51 -11 19 -11 25 -11 32 0 5 8 9 19 9 24 0 6 5 2 11 -8
10 -18 50 -15 76 5 7 5 14 5 18 -2 9 -15 25 -12 25 4 0 8 9 18 20 21 11 4 18
10 15 15 -3 4 3 14 12 21 14 12 16 12 8 -1 -6 -12 -5 -12 5 -3 7 6 19 9 28 5
11 -4 14 -1 9 11 -3 9 -3 17 1 17 7 0 42 52 42 63 0 7 -22 3 -37 -6 -6 -4 -15
-2 -19 4 -4 7 -3 9 4 5 6 -3 13 -2 16 3 3 5 22 7 41 4 33 -4 47 8 25 22 -6 4
-7 11 -4 17 5 7 2 9 -8 5 -23 -8 -40 13 -23 29 7 8 17 14 21 14 5 0 3 -5 -4
-12 -18 -18 -14 -30 6 -19 18 9 47 101 32 101 -7 0 -8 11 -13 85 -2 32 -25 67
-39 59 -15 -10 -64 -15 -50 -6 8 5 13 12 13 16 -2 16 0 18 14 6 23 -19 39 -1
19 21 -13 14 -21 16 -36 8 -11 -6 -22 -8 -26 -5 -3 3 -1 6 4 6 5 0 9 15 10 34
1 28 -3 34 -17 31 -10 -2 -24 4 -31 13 -12 16 -11 16 7 2 20 -15 20 -15 0 8
-13 16 -27 22 -42 19 -12 -2 -22 -1 -21 2 2 23 -4 32 -18 27 -8 -3 -24 -1 -35
4 -16 9 -21 7 -29 -12 l-9 -23 0 23 c-1 31 -19 28 -24 -5 -4 -26 -4 -26 -6 5
-1 31 -18 44 -26 20z m-28 -85 c-2 -16 -4 -5 -4 22 0 28 2 40 4 28 2 -13 2
-35 0 -50z m120 45 c-3 -8 -6 -5 -6 6 -1 11 2 17 5 13 3 -3 4 -12 1 -19z
m-240 -24 c-3 -4 -2 -16 4 -28 9 -19 9 -19 -4 -4 -8 10 -18 14 -23 10 -4 -4
-2 1 5 11 7 9 16 17 19 17 3 0 2 -3 -1 -6z m149 -72 c-11 -10 -13 3 -7 43 l6
40 3 -39 c2 -21 1 -41 -2 -44z m98 14 c-16 -25 -34 -34 -34 -18 0 13 45 60 48
51 2 -4 -4 -19 -14 -33z m-168 -33 c-12 -12 -23 17 -18 45 l6 27 9 -33 c6 -18
7 -36 3 -39z m258 2 c-27 -36 -39 -42 -48 -26 -4 6 60 61 72 61 2 0 -9 -16
-24 -35z m-286 -21 c2 -1 -1 -5 -6 -8 -5 -3 -22 9 -38 26 l-29 31 35 -23 c19
-13 36 -25 38 -26z m-94 10 c3 -8 -1 -14 -10 -14 -9 0 -12 5 -8 12 5 7 3 8 -7
2 -24 -14 -37 -13 -34 5 2 9 4 17 4 17 5 7 51 -12 55 -22z m262 1 c31 -6 103
-67 105 -89 2 -18 5 -29 13 -58 9 -32 -1 -58 -16 -37 -6 10 -7 4 -4 -18 3 -24
1 -30 -10 -26 -10 4 -12 0 -8 -11 3 -9 11 -13 16 -10 6 4 9 1 6 -7 -3 -8 -14
-13 -25 -13 -13 1 -26 -8 -34 -22 -7 -13 -18 -24 -26 -24 -7 0 -13 -6 -13 -14
0 -19 -54 -25 -103 -13 -52 13 -113 74 -127 126 -25 94 37 199 131 221 19 4
41 6 49 5 8 -2 29 -6 46 -10z m225 -2 c13 -16 12 -17 -3 -4 -17 13 -22 21 -14
21 2 0 10 -8 17 -17z m-441 -66 c0 -5 -12 -6 -27 -3 -16 4 -41 10 -57 13 -16
3 -23 9 -17 12 14 9 101 -11 101 -22z m435 3 c-3 -5 -19 -10 -36 -10 -16 0
-29 -4 -29 -9 0 -5 -8 -8 -17 -7 -34 5 -13 21 34 27 27 3 49 7 51 7 2 1 0 -2
-3 -8z m-34 -57 c13 -15 12 -15 -8 -4 -24 12 -29 21 -14 21 5 0 15 -7 22 -17z
m59 7 c0 -5 -7 -10 -15 -10 -8 0 -15 5 -15 10 0 6 7 10 15 10 8 0 15 -4 15
-10z m-490 -35 c0 -11 -11 -15 -47 -14 l-48 1 40 13 c53 18 55 18 55 0z m485
-26 c14 -6 10 -7 -15 -5 -19 2 -47 4 -62 5 -16 0 -28 6 -28 11 0 11 69 4 105
-11z m-475 -59 c0 -14 -7 -20 -24 -20 -13 0 -36 -10 -52 -22 -16 -12 -22 -14
-14 -5 12 13 78 63 88 66 1 1 2 -8 2 -19z m401 -46 l24 -26 -37 19 c-38 18
-49 33 -25 33 8 0 24 -12 38 -26z m-387 -50 c-35 -45 -40 -43 -12 5 12 22 26
37 30 35 5 -3 -4 -21 -18 -40z m311 6 c4 -6 11 -8 16 -4 5 3 8 2 7 -3 -1 -4 4
-18 11 -31 12 -23 11 -23 -28 4 -22 14 -38 30 -35 35 7 12 21 11 29 -1z m-225
-34 c0 -7 -7 -19 -15 -26 -8 -7 -16 -22 -16 -34 -1 -17 -2 -18 -6 -3 -2 9 1
31 9 47 14 31 28 40 28 16z m164 -12 c3 -9 6 -25 6 -37 0 -18 2 -20 11 -7 9
13 10 13 6 -1 -3 -9 0 -22 6 -29 10 -10 7 -10 -11 -1 -13 7 -25 20 -28 29 -3
9 -10 25 -15 34 -12 24 -11 28 5 28 8 0 17 -7 20 -16z m-90 -25 c3 -17 6 -41
5 -53 0 -20 0 -20 -8 -1 -14 35 -21 85 -12 85 5 0 11 -14 15 -31z m33 9 c-3
-8 -6 -5 -6 6 -1 11 2 17 5 13 3 -3 4 -12 1 -19z m34 -75 c-8 -15 -10 -15 -11
-2 0 17 10 32 18 25 2 -3 -1 -13 -7 -23z"/>
<path d="M230 455 c-24 -14 -24 -14 15 -9 l40 4 -34 -16 -34 -15 28 -15 c32
-16 61 -18 70 -4 4 6 11 8 16 5 22 -14 7 25 -17 44 -31 24 -49 26 -84 6z"/>
<path d="M391 446 c-18 -19 -22 -33 -20 -72 4 -53 -14 -71 -38 -38 -11 15 -13
16 -13 1 0 -9 9 -22 20 -30 18 -13 19 -15 5 -21 -9 -3 -26 -6 -38 -6 -22 -1
-22 -1 -2 -16 11 -8 28 -13 38 -10 9 2 15 0 11 -5 -7 -13 7 -11 39 4 31 14 35
27 9 27 -30 0 -34 12 -11 36 13 14 17 24 10 29 -12 7 -15 48 -4 58 3 4 12 2
19 -4 8 -7 19 -7 31 -1 10 5 25 7 33 5 8 -2 2 7 -15 21 -28 24 -29 25 -5 19
22 -6 24 -5 11 10 -19 24 -54 21 -80 -7z"/>
<path d="M593 575 c0 -8 4 -12 9 -9 5 3 6 10 3 15 -9 13 -12 11 -12 -6z"/>
<path d="M80 160 c0 -5 5 -10 11 -10 5 0 7 5 4 10 -3 6 -8 10 -11 10 -2 0 -4
-4 -4 -10z"/>
<path d="M184 113 c2 -10 6 -17 10 -16 15 3 16 11 2 22 -12 10 -14 9 -12 -6z"/>
</g>
</svg>
