<svg width="284" height="20" viewBox="0 0 284 20" fill="none" xmlns="http://www.w3.org/2000/svg">
<path d="M0.9 1.66C2.1 1.04667 3.43333 0.739999 4.9 0.739999C5.64667 0.739999 6.37333 0.833332 7.08 1.02C7.78667 1.20667 8.45333 1.5 9.08 1.9C9.72 2.28667 10.2733 2.76667 10.74 3.34C11.22 3.91333 11.6 4.61333 11.88 5.44C12.16 6.26667 12.3 7.17333 12.3 8.16C12.3 9.34667 12.0867 10.4133 11.66 11.36C11.2333 12.2933 10.66 13.04 9.94 13.6C9.23333 14.1467 8.44667 14.56 7.58 14.84C6.71333 15.12 5.80667 15.26 4.86 15.26C3.44667 15.26 2.12667 14.9533 0.9 14.34V12.04C1.86 12.7733 3.06667 13.14 4.52 13.14C5.96 13.14 7.19333 12.8133 8.22 12.16C9.24667 11.4933 9.84 10.4467 10 9.02H3.14V6.98H9.96C9.82667 6.03333 9.48667 5.24 8.94 4.6C8.39333 3.96 7.74667 3.51333 7 3.26C6.26667 2.99333 5.45333 2.86 4.56 2.86C3.06667 2.86 1.84667 3.2 0.9 3.88V1.66ZM16.5269 15H14.3869V5.4H16.5269V9.2H18.1069L20.8669 5.4H23.3069L19.8269 10.16L23.6869 15H21.2269L18.0669 11.02H16.5269V15ZM24.0017 10.28C24.0017 8.61333 24.5284 7.34 25.5817 6.46C26.6351 5.58 27.8751 5.14 29.3017 5.14C30.4484 5.14 31.4351 5.38667 32.2617 5.88V7.84C31.5151 7.30667 30.6284 7.04 29.6017 7.04C28.6551 7.04 27.8484 7.30667 27.1817 7.84C26.5151 8.36 26.1817 9.14667 26.1817 10.2C26.1817 11.2267 26.5084 12.0133 27.1617 12.56C27.8284 13.0933 28.6284 13.36 29.5617 13.36C30.5751 13.36 31.5084 13.1133 32.3617 12.62V14.6C31.4417 15.04 30.3817 15.26 29.1817 15.26C27.7817 15.26 26.5684 14.8333 25.5417 13.98C24.5151 13.1133 24.0017 11.88 24.0017 10.28ZM36.6441 15H34.5041V5.4H36.6441V9.2H38.2241L40.9841 5.4H43.4241L39.9441 10.16L43.8041 15H41.3441L38.1841 11.02H36.6441V15ZM49.0272 7.22C48.9472 8.47333 48.8405 9.54667 48.7072 10.44C48.5739 11.3333 48.3739 12.16 48.1072 12.92C47.8405 13.6667 47.4872 14.2333 47.0472 14.62C46.6205 14.9933 46.0939 15.18 45.4672 15.18C45.0539 15.18 44.6139 15.0933 44.1472 14.92V13.24C44.3739 13.32 44.5805 13.36 44.7672 13.36C45.5272 13.36 46.0605 12.7 46.3672 11.38C46.6872 10.0467 46.9005 8.05333 47.0072 5.4H54.4072V15H52.2672V7.22H49.0272ZM70.0622 6.48C71.0755 7.37333 71.5822 8.61333 71.5822 10.2C71.5822 11.7867 71.0755 13.0267 70.0622 13.92C69.0489 14.8133 67.8222 15.26 66.3822 15.26C65.1289 15.26 64.0155 14.8933 63.0422 14.16C62.0689 13.4267 61.4889 12.4067 61.3022 11.1H59.2222V15H57.0822V5.4H59.2222V9.3H61.3022C61.4889 7.99333 62.0689 6.97333 63.0422 6.24C64.0155 5.50667 65.1289 5.14 66.3822 5.14C67.8222 5.14 69.0489 5.58667 70.0622 6.48ZM64.1822 7.92C63.6222 8.49333 63.3422 9.25333 63.3422 10.2C63.3422 11.1467 63.6222 11.9133 64.1822 12.5C64.7422 13.0733 65.4755 13.36 66.3822 13.36C67.2889 13.36 68.0155 13.0733 68.5622 12.5C69.1222 11.9133 69.4022 11.1467 69.4022 10.2C69.4022 9.25333 69.1222 8.49333 68.5622 7.92C68.0155 7.33333 67.2889 7.04 66.3822 7.04C65.4755 7.04 64.7422 7.33333 64.1822 7.92ZM81.0475 12.38C81.0475 13.2467 80.6542 13.9467 79.8675 14.48C79.0942 15 77.9875 15.26 76.5475 15.26C75.1475 15.26 73.9475 15 72.9475 14.48V12.64C73.8942 13.1733 75.0008 13.44 76.2675 13.44C78.0142 13.44 78.8875 13 78.8875 12.12C78.8875 11.3333 78.2208 10.94 76.8875 10.94H74.9275V9.3H76.8875C78.0875 9.3 78.6875 8.94 78.6875 8.22C78.6875 7.80667 78.4808 7.49333 78.0675 7.28C77.6542 7.05333 77.0942 6.94 76.3875 6.94C75.1875 6.94 74.1008 7.2 73.1275 7.72V5.88C74.1808 5.37333 75.3542 5.12 76.6475 5.12C78.0475 5.12 79.0942 5.38 79.7875 5.9C80.4942 6.42 80.8475 7.1 80.8475 7.94C80.8475 8.48667 80.6942 8.94667 80.3875 9.32C80.0808 9.69333 79.6675 9.94667 79.1475 10.08C79.7208 10.24 80.1808 10.52 80.5275 10.92C80.8742 11.3067 81.0475 11.7933 81.0475 12.38ZM85.0355 15H83.1955V5.4H85.3355V11.68L90.4755 5.4H92.3155V15H90.1755V8.72L85.0355 15ZM100.632 15H94.9923V5.4H100.472C101.419 5.4 102.159 5.64 102.692 6.12C103.239 6.58667 103.512 7.2 103.512 7.96C103.512 9.01333 103.059 9.74 102.152 10.14C102.632 10.2867 103.026 10.5533 103.332 10.94C103.639 11.3267 103.792 11.8 103.792 12.36C103.792 13.1467 103.526 13.7867 102.992 14.28C102.472 14.76 101.686 15 100.632 15ZM97.1323 10.92V13.38H100.112C101.126 13.38 101.632 12.9733 101.632 12.16C101.632 11.3333 101.139 10.92 100.152 10.92H97.1323ZM97.1323 7.02V9.4H99.9923C100.899 9.4 101.352 9.01333 101.352 8.24C101.352 7.81333 101.219 7.50667 100.952 7.32C100.699 7.12 100.379 7.02 99.9923 7.02H97.1323ZM108.089 15H105.949V5.4H108.089V9.26H112.889V5.4H115.029V15H112.889V11.14H108.089V15ZM118.627 13.92C117.614 13.0267 117.107 11.7867 117.107 10.2C117.107 8.61333 117.614 7.37333 118.627 6.48C119.654 5.58667 120.881 5.14 122.307 5.14C123.747 5.14 124.974 5.58667 125.987 6.48C127.001 7.37333 127.507 8.61333 127.507 10.2C127.507 11.7867 127.001 13.0267 125.987 13.92C124.974 14.8133 123.747 15.26 122.307 15.26C120.881 15.26 119.654 14.8133 118.627 13.92ZM124.487 12.46C125.047 11.8867 125.327 11.1333 125.327 10.2C125.327 9.26667 125.047 8.52 124.487 7.96C123.927 7.38667 123.201 7.1 122.307 7.1C121.401 7.1 120.667 7.38667 120.107 7.96C119.547 8.52 119.267 9.26667 119.267 10.2C119.267 11.1333 119.547 11.8867 120.107 12.46C120.667 13.02 121.401 13.3 122.307 13.3C123.201 13.3 123.927 13.02 124.487 12.46ZM128.982 10.2C128.982 9.37333 129.129 8.62667 129.422 7.96C129.716 7.28 130.102 6.74667 130.582 6.36C131.062 5.96 131.582 5.66 132.142 5.46C132.702 5.24667 133.269 5.14 133.842 5.14C134.576 5.14 135.236 5.25333 135.822 5.48C136.422 5.70667 136.902 6.01333 137.262 6.4C137.622 6.78667 137.916 7.23333 138.142 7.74C138.369 8.24667 138.489 8.78 138.502 9.34C138.516 9.88667 138.469 10.44 138.362 11H131.142C131.249 11.8133 131.649 12.4267 132.342 12.84C133.036 13.24 133.862 13.44 134.822 13.44C135.916 13.44 136.929 13.2133 137.862 12.76V14.6C136.942 15.04 135.796 15.26 134.422 15.26C132.862 15.26 131.562 14.82 130.522 13.94C129.496 13.06 128.982 11.8133 128.982 10.2ZM136.442 9.4C136.522 8.85333 136.356 8.30667 135.942 7.76C135.542 7.2 134.876 6.92 133.942 6.92C133.182 6.92 132.529 7.14 131.982 7.58C131.449 8.02 131.162 8.62667 131.122 9.4H136.442ZM146.147 13.92C145.133 13.0267 144.627 11.7867 144.627 10.2C144.627 8.61333 145.133 7.37333 146.147 6.48C147.173 5.58667 148.4 5.14 149.827 5.14C151.267 5.14 152.493 5.58667 153.507 6.48C154.52 7.37333 155.027 8.61333 155.027 10.2C155.027 11.7867 154.52 13.0267 153.507 13.92C152.493 14.8133 151.267 15.26 149.827 15.26C148.4 15.26 147.173 14.8133 146.147 13.92ZM152.007 12.46C152.567 11.8867 152.847 11.1333 152.847 10.2C152.847 9.26667 152.567 8.52 152.007 7.96C151.447 7.38667 150.72 7.1 149.827 7.1C148.92 7.1 148.187 7.38667 147.627 7.96C147.067 8.52 146.787 9.26667 146.787 10.2C146.787 11.1333 147.067 11.8867 147.627 12.46C148.187 13.02 148.92 13.3 149.827 13.3C150.72 13.3 151.447 13.02 152.007 12.46ZM166.702 10.54C166.702 12.02 166.242 13.18 165.322 14.02C164.402 14.8467 163.195 15.26 161.702 15.26C160.208 15.26 158.995 14.7733 158.062 13.8C157.128 12.8267 156.662 11.4133 156.662 9.56C156.662 7.97333 156.928 6.63333 157.462 5.54C157.995 4.44667 158.715 3.61333 159.622 3.04C160.395 2.57333 161.215 2.24 162.082 2.04C162.948 1.82667 163.695 1.65333 164.322 1.52C164.962 1.37333 165.468 1.11333 165.842 0.739999V2.82C165.388 3.16667 164.615 3.44667 163.522 3.66C162.442 3.86 161.562 4.14667 160.882 4.52C159.895 5.09333 159.215 6.10667 158.842 7.56C159.175 7.06667 159.635 6.66667 160.222 6.36C160.822 6.04 161.482 5.88 162.202 5.88C163.455 5.88 164.515 6.30667 165.382 7.16C166.262 8.01333 166.702 9.14 166.702 10.54ZM158.822 10.58C158.822 11.3667 159.068 12.04 159.562 12.6C160.068 13.1467 160.768 13.42 161.662 13.42C162.568 13.42 163.268 13.1467 163.762 12.6C164.268 12.0533 164.522 11.38 164.522 10.58C164.522 9.78 164.268 9.10667 163.762 8.56C163.268 8.01333 162.568 7.74 161.662 7.74C160.795 7.74 160.102 8.03333 159.582 8.62C159.075 9.19333 158.822 9.84667 158.822 10.58ZM168.201 10.28C168.201 8.61333 168.728 7.34 169.781 6.46C170.834 5.58 172.074 5.14 173.501 5.14C174.648 5.14 175.634 5.38667 176.461 5.88V7.84C175.714 7.30667 174.828 7.04 173.801 7.04C172.854 7.04 172.048 7.30667 171.381 7.84C170.714 8.36 170.381 9.14667 170.381 10.2C170.381 11.2267 170.708 12.0133 171.361 12.56C172.028 13.0933 172.828 13.36 173.761 13.36C174.774 13.36 175.708 13.1133 176.561 12.62V14.6C175.641 15.04 174.581 15.26 173.381 15.26C171.981 15.26 170.768 14.8333 169.741 13.98C168.714 13.1133 168.201 11.88 168.201 10.28ZM182.523 7.22C182.443 8.47333 182.337 9.54667 182.203 10.44C182.07 11.3333 181.87 12.16 181.603 12.92C181.337 13.6667 180.983 14.2333 180.543 14.62C180.117 14.9933 179.59 15.18 178.963 15.18C178.55 15.18 178.11 15.0933 177.643 14.92V13.24C177.87 13.32 178.077 13.36 178.263 13.36C179.023 13.36 179.557 12.7 179.863 11.38C180.183 10.0467 180.397 8.05333 180.503 5.4H187.903V15H185.763V7.22H182.523ZM194.898 12.64L197.758 5.4H199.998L195.498 16.3C194.578 18.5267 193.292 19.64 191.638 19.64C191.252 19.64 190.832 19.5867 190.378 19.48V17.66C190.672 17.7533 190.998 17.8 191.358 17.8C192.385 17.8 193.178 17.0533 193.738 15.56L193.938 15.08L189.378 5.4H191.658L194.898 12.64ZM215.574 15H213.234L210.374 11.18H209.034V15H206.894V11.18H205.574L202.714 15H200.374L203.954 10.18L200.734 5.4H203.074L205.694 9.36H206.894V5.4H209.034V9.36H210.254L212.874 5.4H215.194L211.994 10.18L215.574 15ZM218.864 15H217.024V5.4H219.164V11.68L224.304 5.4H226.144V15H224.004V8.72L218.864 15ZM234.46 15H228.82V5.4H234.3C235.247 5.4 235.987 5.64 236.52 6.12C237.067 6.58667 237.34 7.2 237.34 7.96C237.34 9.01333 236.887 9.74 235.98 10.14C236.46 10.2867 236.854 10.5533 237.16 10.94C237.467 11.3267 237.62 11.8 237.62 12.36C237.62 13.1467 237.354 13.7867 236.82 14.28C236.3 14.76 235.514 15 234.46 15ZM230.96 10.92V13.38H233.94C234.954 13.38 235.46 12.9733 235.46 12.16C235.46 11.3333 234.967 10.92 233.98 10.92H230.96ZM230.96 7.02V9.4H233.82C234.727 9.4 235.18 9.01333 235.18 8.24C235.18 7.81333 235.047 7.50667 234.78 7.32C234.527 7.12 234.207 7.02 233.82 7.02H230.96ZM247.958 12.78C247.958 13.2467 248.191 13.48 248.658 13.48C248.818 13.48 249.031 13.44 249.298 13.36V14.9C248.898 15.06 248.444 15.14 247.938 15.14C246.978 15.14 246.338 14.7667 246.018 14.02C244.991 14.8467 243.784 15.26 242.398 15.26C241.464 15.26 240.671 15.0067 240.018 14.5C239.364 13.98 239.038 13.2533 239.038 12.32C239.038 11.2 239.458 10.3867 240.298 9.88C241.138 9.36 242.144 9.1 243.318 9.1C244.091 9.1 244.924 9.19333 245.818 9.38V9.04C245.818 8.42667 245.598 7.93333 245.158 7.56C244.718 7.18667 244.098 7 243.298 7C242.111 7 240.958 7.24667 239.838 7.74V5.78C241.091 5.35333 242.318 5.14 243.518 5.14C244.918 5.14 246.004 5.48667 246.778 6.18C247.564 6.87333 247.958 7.92667 247.958 9.34V12.78ZM243.738 10.6C243.031 10.6 242.438 10.7267 241.958 10.98C241.478 11.2333 241.238 11.6333 241.238 12.18C241.238 12.6333 241.411 12.9867 241.758 13.24C242.104 13.48 242.531 13.6 243.038 13.6C244.131 13.6 245.058 13.22 245.818 12.46V10.84C245.044 10.68 244.351 10.6 243.738 10.6ZM253.05 15H250.91V5.4H253.05V9.26H257.85V5.4H259.99V15H257.85V11.14H253.05V15ZM264.508 15H262.668V5.4H264.808V11.68L269.948 5.4H271.788V15H269.648V8.72L264.508 15ZM273.865 10.2C273.865 9.37333 274.012 8.62667 274.305 7.96C274.598 7.28 274.985 6.74667 275.465 6.36C275.945 5.96 276.465 5.66 277.025 5.46C277.585 5.24667 278.152 5.14 278.725 5.14C279.458 5.14 280.118 5.25333 280.705 5.48C281.305 5.70667 281.785 6.01333 282.145 6.4C282.505 6.78667 282.798 7.23333 283.025 7.74C283.252 8.24667 283.372 8.78 283.385 9.34C283.398 9.88667 283.352 10.44 283.245 11H276.025C276.132 11.8133 276.532 12.4267 277.225 12.84C277.918 13.24 278.745 13.44 279.705 13.44C280.798 13.44 281.812 13.2133 282.745 12.76V14.6C281.825 15.04 280.678 15.26 279.305 15.26C277.745 15.26 276.445 14.82 275.405 13.94C274.378 13.06 273.865 11.8133 273.865 10.2ZM281.325 9.4C281.405 8.85333 281.238 8.30667 280.825 7.76C280.425 7.2 279.758 6.92 278.825 6.92C278.065 6.92 277.412 7.14 276.865 7.58C276.332 8.02 276.045 8.62667 276.005 9.4H281.325Z" fill="#CC9933"/>
</svg>
